# xmcd CD database file
#
# Track frame offsets:
#	150
#	10968
#	21675
#	33434
#	43643
#	53816
#	62719
#	73694
#	86138
#	95333
#
# Disc length: 1433 seconds
#
# Revision: 0
# Processed by: cddbd v1.5.2PL0 Copyright (c) Steve Scherf et al.
# Submitted via: CDex 1.50
#
DISCID=8705970a
DTITLE=Marcel Martel - Noël à mon Église avec Marcel Martel
DYEAR=1978
DGENRE=Country
TTITLE0=Noël à mon Église
TTITLE1=Le 25e jour de décembre
TTITLE2=C'est Noël
TTITLE3=Neige de décembre
TTITLE4=Lettre du jour de l'an
TTITLE5=Joli carillon
TTITLE6=Bonne et heureuse année
TTITLE7=Le temps des fêtes
TTITLE8=Au jour de l'an
TTITLE9=La nouvelle années
EXTD=YEAR: 1978
EXTT0=
EXTT1=
EXTT2=
EXTT3=
EXTT4=
EXTT5=
EXTT6=
EXTT7=
EXTT8=
EXTT9=
PLAYORDER=
